<svg width="25" height="24" viewBox="0 0 25 24" fill="none" xmlns="http://www.w3.org/2000/svg">
<g clip-path="url(#clip0_352_15053)">
<path fill-rule="evenodd" clip-rule="evenodd" d="M1.61133 11.4604C1.61133 5.46215 6.47387 0.599609 12.4721 0.599609C18.4704 0.599609 23.3329 5.46215 23.3329 11.4604C23.3329 14.1355 22.3657 16.5848 20.7619 18.4775L23.8736 21.5892C24.2251 21.9407 24.2251 22.5105 23.8736 22.862C23.5221 23.2134 22.9523 23.2134 22.6008 22.862L19.4891 19.7503C17.5964 21.354 15.1472 22.3212 12.4721 22.3212C6.47387 22.3212 1.61133 17.4586 1.61133 11.4604ZM12.4721 2.39961C7.46798 2.39961 3.41133 6.45626 3.41133 11.4604C3.41133 16.4645 7.46798 20.5212 12.4721 20.5212C17.4762 20.5212 21.5329 16.4645 21.5329 11.4604C21.5329 6.45626 17.4762 2.39961 12.4721 2.39961Z" fill="#2D264B"/>
<path d="M16.6189 8C16.8567 8 17.0549 8.08719 17.2134 8.26156C17.3719 8.42008 17.4512 8.6103 17.4512 8.83223C17.4512 9.05415 17.3719 9.2523 17.2134 9.42667C17.0549 9.58519 16.8567 9.66445 16.6189 9.66445H13.7548V15.3893C13.7548 15.6271 13.6676 15.8331 13.4932 16.0075C13.3347 16.1819 13.1286 16.2691 12.875 16.2691C12.6372 16.2691 12.4311 16.1819 12.2568 16.0075C12.0824 15.8331 11.9952 15.6271 11.9952 15.3893V9.66445H9.13106C8.90913 9.66445 8.71098 9.58519 8.53661 9.42667C8.37809 9.26816 8.29883 9.07001 8.29883 8.83223C8.29883 8.6103 8.37809 8.42008 8.53661 8.26156C8.69513 8.08719 8.89328 8 9.13106 8H16.6189Z" fill="#2D264B"/>
</g>
<defs>
<clipPath id="clip0_352_15053">
<rect width="24" height="24" fill="white" transform="translate(0.511719)"/>
</clipPath>
</defs>
</svg>
